# xmcd
#
# Track frame offsets: 
#        150
#        14347
#        31785
#        47215
#        64715
#        83435
#        96327
#        112255
#        129822
#        156447
#
# Disc length: 2377 seconds
#
# Revision: 1
# Processed by: cddbd v1.4PL0 Copyright (c) Steve Scherf et al.
# Submitted via: ExactAudioCopy v0.90b2
#
DISCID=7909470a
DTITLE=Gary Morris - These Days
DYEAR=1900
DGENRE=Country
TTITLE0=Workin' Man Blues
TTITLE1=Love Don't Work That Way
TTITLE2=How Did I Get Here
TTITLE3=Don't Throw Wood (On A Dying Fire)
TTITLE4=Miles Accross The Bedroom
TTITLE5=Let Me, Let Me
TTITLE6=My Finest Hour
TTITLE7=These Days
TTITLE8=Somebody Lives There
TTITLE9=Time Will Tell
EXTD=
EXTT0=
EXTT1=
EXTT2=
EXTT3=
EXTT4=
EXTT5=
EXTT6=
EXTT7=
EXTT8=
EXTT9=
PLAYORDER=
